PathFileType	4	(X/Y/Z)	8_coords_data.trc
DataRate	CameraRate	NumFrames	NumMarkers	Units	OrigDataRate	OrigDataStartFrame	OrigNumFrames
30.0	30.0	7	21	m	30.0	32	62
Frame#	Time	THUMB_TIP	THUMB_IP	THUMB_MCP	THUMB_CMC	INDEX_TIP	INDEX_DIP	INDEX_PIP	INDEX_MCP	MIDDLE_TIP	MIDDLE_DIP	MIDDLE_PIP	MIDDLE_MCP	RING_TIP	RING_DIP	RING_PIP	RING_MCP	PINKY_TIP	PINKY_DIP	PINKY_PIP	PINKY_MCP	WRIST
X1	Y1	Z1	X2	Y2	Z2	X3	Y3	Z3	X4	Y4	Z4	X5	Y5	Z5	X6	Y6	Z6	X7	Y7	Z7	X8	Y8	Z8	X9	Y9	Z9	X10	Y10	Z10	X11	Y11	Z11	X12	Y12	Z12	X13	Y13	Z13	X14	Y14	Z14	X15	Y15	Z15	X16	Y16	Z16	X17	Y17	Z17	X18	Y18	Z18	X19	Y19	Z19	X20	Y20	Z20	X21	Y21	Z21
31	1.0333333333333334	-0.03634560012817383	-0.11415699768066406	1.0034600219726562	-0.03276319885253906	-0.08817939758300782	0.9982960205078125	-0.03579740142822266	-0.060114898681640626	0.99989501953125	-0.03921540069580078	-0.026403499603271485	1.0034600219726562	-0.03622629928588867	-0.0415973014831543	0.9757550048828125	-0.02000079917907715	-0.04213359832763672	0.9661729736328125	-0.016760599136352538	-0.04967539978027344	0.9464429931640626	-0.05364509963989258	-0.0509114990234375	0.9534550170898437	-0.03043880081176758	-0.02648270034790039	0.9750800170898437	-0.01862969970703125	-0.025340299606323242	0.96406298828125	-0.015680700302124023	-0.03051449966430664	0.9395599975585938	-0.05546900177001953	-0.030577600479125975	0.9460560302734375	-0.03575310134887695	-0.010977100372314454	0.97502197265625	-0.021568899154663087	-0.008181719779968262	0.9605260009765625	-0.019720300674438477	-0.008957079887390137	0.9364760131835937	-0.054767799377441403	-0.010257499694824219	0.9459039916992188	-0.037626998901367184	0.002442759990692138	0.9756849975585937	-0.024699600219726562	0.005793930053710938	0.9637860107421875	-0.026267900466918945	0.008147809982299805	0.9477899780273438	-0.05452629852294922	0.008432470321655273	0.9492310180664062	-0.062001998901367185	7.700770348310401e-05	1.0178499755859376
32	1.0666666666666667	-0.037543800354003905	-0.11450199890136718	1.0043599853515626	-0.0338307991027832	-0.08861900329589843	0.9991539916992187	-0.03668109893798828	-0.06057799911499023	1.00047998046875	-0.03954619979858399	-0.02679229927062988	1.0038300170898438	-0.0332677001953125	-0.042384700775146486	0.974781982421875	-0.017826799392700196	-0.04432040023803711	0.9630770263671875	-0.018186399459838867	-0.053356800079345706	0.9433579711914063	-0.054081798553466794	-0.0517411003112793	0.9542449951171875	-0.030113399505615233	-0.027725799560546875	0.97422802734375	-0.017095600128173828	-0.027687000274658202	0.9605390014648437	-0.016966499328613282	-0.034	0.9361010131835937	-0.055549301147460935	-0.03140329933166504	0.9462069702148438	-0.034331298828125	-0.011691699981689454	0.9726370239257812	-0.020394300460815428	-0.009706339836120605	0.9567839965820313	-0.021404699325561525	-0.011194899559020996	0.9324030151367187	-0.05497729873657226	-0.011036100387573243	0.9458770141601562	-0.03531629943847656	0.0019135700464248651	0.9733140258789063	-0.02344029998779297	0.005196859836578369	0.959802001953125	-0.02704990005493164	0.007521900177001953	0.944083984375	-0.05472679901123047	0.007780910015106201	0.948822021484375	-0.062438899993896485	-6.8190798163414e-05	1.0181400146484374
33	1.1	-0.03803260040283203	-0.11460900115966798	1.0046300048828125	-0.034635299682617186	-0.08862159729003906	0.9996489868164062	-0.03755970001220703	-0.06082149887084961	1.0011900024414062	-0.040142398834228515	-0.027184900283813478	1.0041799926757813	-0.026290300369262696	-0.043597801208496094	0.9719299926757813	-0.015135999679565429	-0.04828530120849609	0.9570880126953125	-0.021210800170898436	-0.0578843002319336	0.9387169799804688	-0.054185699462890625	-0.052395500183105466	0.9551859741210937	-0.027073999404907227	-0.02990690040588379	0.9712369995117187	-0.014640600204467773	-0.0309281005859375	0.9563839721679688	-0.018551300048828125	-0.03735749816894531	0.9325349731445313	-0.05542210006713867	-0.03228969955444336	0.9465269775390625	-0.030337900161743165	-0.012621199607849121	0.9697340087890625	-0.01795859909057617	-0.012189599990844726	0.9519929809570312	-0.02330139923095703	-0.014644900321960449	0.9281619873046875	-0.05488050079345703	-0.011956999778747559	0.9462540283203125	-0.02931030082702637	0.001003690004348754	0.9696669921875	-0.020109500885009766	0.003892899990081787	0.9536480102539062	-0.027452499389648437	0.006158780097961425	0.9392269897460938	-0.05368019866943359	0.006891839981079103	0.9484730224609375	-0.06299029922485351	8.5749201476573e-05	1.0183300170898437
34	1.1333333333333333	-0.035604900360107425	-0.11424700164794922	1.004010009765625	-0.03351789855957031	-0.08804499816894532	1.0001099853515625	-0.03744820022583008	-0.0606161003112793	1.0022100219726562	-0.04027949905395508	-0.02721780014038086	1.005010009765625	-0.017926700592041017	-0.04659370040893555	0.9657069702148438	-0.012820799827575684	-0.05332460021972656	0.9491890258789063	-0.02515730094909668	-0.06212760162353516	0.9341589965820313	-0.053666900634765625	-0.05295100021362305	0.9566799926757813	-0.019478200912475586	-0.032522998809814456	0.9658770141601563	-0.010114800453186036	-0.034879501342773435	0.9489710083007813	-0.02124930000305176	-0.04050949859619141	0.9271719970703125	-0.0551786994934082	-0.03303369903564453	0.9482520141601563	-0.017980899810791016	-0.013802300453186036	0.9652979736328124	-0.01310260009765625	-0.015368800163269043	0.94472900390625	-0.025804399490356445	-0.018067300796508787	0.9236909790039063	-0.05370320129394531	-0.012969599723815919	0.9467340087890626	-0.018426900863647462	0.00038203200697898806	0.9608400268554688	-0.017337600708007814	0.00286978006362915	0.9434979858398438	-0.029229700088500978	0.0046166000366210935	0.9320609741210938	-0.051144500732421876	0.006000339984893799	0.94835498046875	-0.06337789916992187	0.0006670489907264711	1.0186300048828125
35	1.1666666666666667	-0.03623099899291992	-0.11378500366210938	1.0040399780273437	-0.034246200561523436	-0.08759690093994141	1.0005700073242187	-0.03787139892578125	-0.06066490173339844	1.0033099975585937	-0.04094390106201172	-0.027503700256347657	1.0063699951171876	-0.008116780281066894	-0.05072510147094727	0.9584959716796875	-0.010542799949645996	-0.05816880035400391	0.9427219848632813	-0.027991500854492188	-0.0649385986328125	0.931885009765625	-0.052644001007080075	-0.053087100982666016	0.9580189819335938	-0.007482800006866455	-0.03561289978027344	0.9605130004882813	-0.005536099910736084	-0.03916609954833984	0.940281005859375	-0.02386709976196289	-0.042913898468017575	0.9229920043945312	-0.053678199768066405	-0.03334709930419922	0.9488599853515625	-0.000911406993865966	-0.017216999053955077	0.9560609741210937	-0.0068028998374938966	-0.018877199172973633	0.9366309814453125	-0.026946800231933594	-0.020249099731445314	0.9209340209960938	-0.05153310012817383	-0.013611200332641602	0.9475650024414063	-0.007217299938201904	-0.00063035100698471	0.950156982421875	-0.014662699699401855	0.001855080008506775	0.9348070068359375	-0.03027910041809082	0.0035221800804138177	0.9280960083007812	-0.04824739837646484	0.005490409851074219	0.948697021484375	-0.06369189834594727	0.0011689699888229371	1.018989990234375
36	1.2	-0.037751998901367184	-0.11346700286865234	1.0026400146484375	-0.035349899291992185	-0.08719580078125	1.00047998046875	-0.03921849822998047	-0.060583301544189457	1.0042000122070311	-0.04171929931640625	-0.02746619987487793	1.007739990234375	0.0007695109844207761	-0.05629700088500977	0.95052001953125	-0.009915829658508301	-0.06294609832763672	0.9369719848632813	-0.03006380081176758	-0.06669979858398438	0.9308380126953125	-0.05142480087280273	-0.05301290130615234	0.9592009887695313	0.005843860149383545	-0.039749198913574216	0.9516389770507813	-0.002750439882278442	-0.043180599212646484	0.9318289794921875	-0.025887100219726563	-0.04454909896850586	0.920656005859375	-0.05219969940185547	-0.03331100082397461	0.9501079711914062	0.011804599761962891	-0.022286699295043944	0.9418590087890625	-0.003258810043334961	-0.022418800354003905	0.9274920043945313	-0.02740449905395508	-0.021483699798583986	0.919405029296875	-0.04956100082397461	-0.014036100387573242	0.9481640014648437	0.002382030010223388	-0.001876880049705505	0.9375070190429687	-0.012682900428771973	0.001245370030403137	0.9281510009765624	-0.029887399673461913	0.0031765201091766347	0.9270640258789062	-0.04583819961547852	0.005041790008544922	0.9493280029296876	-0.064018798828125	0.001853449940681457	1.0191400146484375
37	1.2333333333333334	-0.03857820129394531	-0.11284300231933594	0.9996920166015625	-0.03619219970703125	-0.08673609924316407	0.9994669799804687	-0.03969499969482422	-0.06016379928588867	1.0046199951171875	-0.041771900177001955	-0.027298200607299806	1.0082000122070311	0.007169290065765381	-0.062179500579833985	0.9403359985351563	-0.009516180038452149	-0.0662936019897461	0.9314569702148437	-0.0308794002532959	-0.06713269805908204	0.93039599609375	-0.04999050140380859	-0.05288159942626953	0.9597369995117188	0.016313800811767577	-0.04526530075073242	0.9349329833984374	-0.001786630034446716	-0.046340198516845704	0.9230659790039063	-0.027649499893188476	-0.045354598999023436	0.9192509765625	-0.050762401580810544	-0.03334170150756836	0.9506680297851563	0.017339000701904295	-0.026905399322509765	0.9236580200195312	-0.003068099975585937	-0.0247411994934082	0.9181530151367188	-0.028155500411987305	-0.02194729995727539	0.9185059814453125	-0.04779209899902344	-0.014201299667358398	0.9483939819335937	0.005121640205383301	-0.0017839299440383911	0.9211069946289062	-0.013109399795532226	0.001447090029716491	0.9216290283203125	-0.02968440055847168	0.0032913999557495108	0.926947021484375	-0.04382590103149414	0.0048116202354431155	0.9501409912109375	-0.06403579711914062	0.002302500009536743	1.019739990234375
